PathFileType	4	(X/Y/Z)	D:\TRACE\v60_Jaco2_6-2-23\BothDRS_Motion3_1-v60.trc
DataRate	CameraRate	NumFrames	NumMarkers	Units	OrigDataRate	OrigDataStartFrame	OrigNumFrames
100.00	100.00	      21	9	mm	100.00	5251	      7000
Frame#	Time	front left toe			Front right toe			aft left toe			aft right toe			Arm			FL body			FR body			AL Body			AR Body			
		X1	Y1	Z1	X2	Y2	Z2	X3	Y3	Z3	X4	Y4	Z4	X5	Y5	Z5	X6	Y6	Z6	X7	Y7	Z7	X8	Y8	Z8	X9	Y9	Z9	

5251	52.500	-181.39624	10.20055	-212.77614	213.09857	66.34694	-203.32039	-150.66499	81.65201	426.49625	189.31396	17.79656	409.01828	51.96181	1041.95605	-721.38385	-62.98568	498.55341	-376.28012	96.12952	495.44724	-377.39395	-47.60579	574.69989	565.39355	103.10655	563.02606	563.96826	
5252	52.510	-181.38792	10.23745	-212.72960	214.79584	57.82771	-203.32755	-149.91859	73.31194	426.09595	189.29959	17.48270	408.92010	51.95721	1042.11169	-721.04993	-62.70882	498.56323	-376.01633	96.44006	495.44635	-377.32455	-46.45178	574.44611	565.68115	104.42712	562.51965	564.02527	
5253	52.520	-181.35078	10.25888	-212.61932	215.47089	49.25164	-203.79440	-149.10342	64.93916	425.78992	189.26752	17.12673	408.96628	51.89426	1042.22778	-720.71942	-62.50381	498.48996	-375.70297	96.72859	495.42908	-377.24158	-44.84000	573.79321	566.00531	105.94301	561.92035	564.02319	
5254	52.530	-181.32767	10.24934	-212.51817	216.28094	41.43507	-204.49966	-147.97476	56.67881	425.39554	189.56343	16.89453	409.03986	51.68245	1042.42981	-720.42255	-62.07526	498.47943	-375.52774	96.99757	495.40741	-377.36478	-43.44998	573.40607	566.11047	107.30275	561.52655	563.91302	
5255	52.540	-181.25632	10.34158	-212.44276	217.53271	34.49232	-204.79706	-147.07758	49.60052	424.31485	189.57587	16.68427	409.12451	51.57721	1042.71155	-720.27576	-61.62115	498.55496	-375.43939	97.19620	495.44958	-377.49127	-42.05365	573.20953	566.10254	108.45036	560.94043	563.83893	
5256	52.550	-181.12859	10.59290	-212.41022	218.58572	28.23011	-205.56613	-146.34953	42.64162	424.17877	189.76419	16.59608	409.11841	51.72132	1042.84326	-720.15784	-61.17439	498.67798	-375.50870	97.49646	495.53735	-377.76447	-40.59538	572.74237	566.09778	109.97758	560.85516	563.86377	
5257	52.560	-181.03249	10.65742	-212.36375	219.59123	22.15846	-206.60020	-144.71642	36.12109	422.59634	190.04625	16.56888	409.23248	52.05447	1042.96436	-720.20526	-60.84996	498.68347	-375.60123	97.90467	495.60196	-377.97806	-39.23383	572.41492	565.97974	111.66666	560.48029	563.44037	
5258	52.570	-180.98375	10.69693	-212.24210	220.29782	16.13938	-207.77072	-144.45836	29.32367	422.09274	190.43747	16.56086	409.31683	52.59952	1042.92896	-720.16608	-60.61202	498.77484	-375.85843	98.34008	495.51489	-378.45029	-37.87241	572.05920	565.69513	112.78888	560.02905	563.10205	
5259	52.580	-180.96487	10.69058	-212.08583	219.90469	14.98982	-210.12941	-143.66370	23.03072	420.54129	190.77090	16.56339	409.37216	52.98134	1043.07239	-720.37775	-60.13210	498.64389	-376.03607	98.56329	495.51364	-378.85291	-36.38949	571.82318	565.42743	114.10144	559.82318	562.79956	
5260	52.590	-180.81195	10.76326	-212.10989	221.48796	13.09772	-209.76810	-143.46730	22.16295	419.70901	190.72227	16.28453	409.21771	53.51819	1043.19397	-720.88599	-59.91174	499.10739	-376.37335	99.06934	496.09500	-379.17105	-35.24772	571.78265	565.18604	115.83501	559.95044	562.80219	
5261	52.600	-180.64679	11.02671	-212.19003	221.61998	13.17355	-209.60809	-143.72958	20.90227	418.71820	190.58012	16.36804	408.80020	53.41695	1043.58398	-721.26886	-59.68529	499.60422	-376.59738	99.55203	496.37756	-379.39423	-33.28700	573.00616	564.93988	116.56252	560.95465	561.75085	
5262	52.610	-180.60498	11.41815	-212.34023	219.98036	12.67608	-209.60959	-143.67618	21.22051	419.48883	190.64723	16.86636	408.77786	53.51055	1044.01501	-722.05182	-59.26474	499.94571	-376.57904	99.83351	496.52924	-379.74762	-32.25873	575.18982	564.62848	118.13493	562.79584	561.51727	
5263	52.620	-179.31451	14.50626	-211.39598	219.91725	11.62844	-209.79169	-143.40639	20.45873	420.32446	189.98122	19.18896	409.72125	53.19316	1044.39282	-723.17212	-59.02913	500.30789	-376.45996	99.79193	496.87628	-380.00909	-30.75780	576.75690	564.51141	119.69418	564.06104	561.03003	
5264	52.630	-175.39116	17.77077	-208.74406	221.45496	12.22335	-209.93452	-143.42406	20.38669	419.98111	187.90312	22.05858	413.38724	53.14120	1044.25391	-724.69379	-58.87602	501.26340	-376.67828	99.81521	497.75162	-380.30188	-29.63601	577.74860	564.32013	120.50198	564.81335	560.69397	
5265	52.640	-172.01772	20.87153	-205.14299	221.46655	12.01425	-209.70171	-143.46709	20.68381	420.14679	185.39084	28.98857	414.85989	53.04783	1043.74268	-725.09668	-58.60948	501.67175	-376.81049	100.17410	497.96924	-380.65594	-28.47203	578.44916	563.99896	121.57172	565.34998	560.41089	
5266	52.650	-169.97490	30.03888	-205.09749	221.45288	11.97571	-209.78540	-143.43860	20.65929	420.18542	183.97603	37.43393	415.31845	53.22891	1043.29785	-725.24805	-58.30437	501.81003	-377.26801	100.77055	498.04874	-380.96994	-27.42710	578.87170	563.61493	122.68191	565.87213	559.92932	
5267	52.660	-169.71504	39.65368	-206.53532	221.59068	11.82610	-209.68736	-143.28619	20.60740	420.10596	184.11472	48.38532	413.53833	53.68064	1043.32788	-725.67731	-57.94909	501.66568	-377.60526	101.14201	497.86737	-381.30902	-26.78332	579.18951	563.45825	123.63069	566.16174	559.69623	
5268	52.670	-170.09592	49.62325	-207.56061	222.07675	11.66177	-209.53763	-143.57077	20.79869	419.89951	186.38899	58.87475	412.23508	54.33257	1043.78882	-726.19800	-57.16499	501.32755	-377.93915	101.68167	497.70135	-381.64169	-26.39461	579.09259	563.09399	124.09354	566.16931	559.42609	
5269	52.680	-170.61940	61.66948	-209.14557	221.95456	11.59024	-209.40309	-143.45712	20.23187	419.98022	190.09521	70.71389	409.97052	55.11327	1043.65417	-726.45831	-56.69294	501.22009	-378.28329	102.43732	497.46606	-381.89285	-26.31037	578.57501	562.74304	123.93761	565.77283	559.34344	
5270	52.690	-170.24521	72.64330	-210.05028	222.24062	11.38435	-209.42665	-143.26903	19.66392	419.74261	194.19951	81.37655	408.38718	55.67373	1043.18225	-726.25989	-56.27047	500.92407	-378.69727	102.60566	497.36600	-382.54489	-26.67687	577.98303	562.29834	123.87621	565.08856	559.08417	
5271	52.700	-169.58273	83.42667	-210.76550	222.48750	11.31231	-209.35178	-143.31842	19.50560	419.74277	197.71159	92.23138	407.39264	57.32987	1042.79004	-726.00299	-55.68726	500.68698	-378.99713	103.11634	497.04562	-382.60785	-26.57374	577.44330	561.92493	123.74736	564.44397	558.86810	
